<mxfile host="65bd71144e">
    <diagram id="wJwOkBTFU07P8qYZX4T-" name="第 1 页">
        <mxGraphModel dx="1167" dy="909" grid="1" gridSize="10" guides="1" tooltips="1" connect="1" arrows="1" fold="1" page="1" pageScale="1" pageWidth="827" pageHeight="1169" math="0" shadow="0">
            <root>
                <mxCell id="0"/>
                <mxCell id="1" parent="0"/>
                <mxCell id="23" value="" style="rounded=0;whiteSpace=wrap;html=1;dashed=1;fontFamily=Courier New;fontSize=18;fillColor=#dae8fc;strokeColor=#6c8ebf;" parent="1" vertex="1">
                    <mxGeometry x="220" y="280" width="430" height="200" as="geometry"/>
                </mxCell>
                <mxCell id="24" value="" style="rounded=0;whiteSpace=wrap;html=1;dashed=1;fontFamily=Courier New;fontSize=18;fillColor=#dae8fc;strokeColor=#6c8ebf;" parent="1" vertex="1">
                    <mxGeometry x="220" y="132" width="430" height="130" as="geometry"/>
                </mxCell>
                <mxCell id="25" value="订单模块" style="rounded=0;whiteSpace=wrap;html=1;dashed=1;fontFamily=Courier New;fontSize=18;strokeColor=#b85450;fillColor=#f8cecc;" parent="1" vertex="1">
                    <mxGeometry x="330" y="10" width="180" height="110" as="geometry"/>
                </mxCell>
                <mxCell id="26" value="支付模块" style="rounded=0;whiteSpace=wrap;html=1;dashed=1;fontFamily=Courier New;fontSize=18;strokeColor=#b85450;fillColor=#f8cecc;" parent="1" vertex="1">
                    <mxGeometry x="130" y="10" width="180" height="110" as="geometry"/>
                </mxCell>
                <mxCell id="27" value="物流模块" style="rounded=0;whiteSpace=wrap;html=1;dashed=1;fontFamily=Courier New;fontSize=18;strokeColor=#b85450;fillColor=#f8cecc;" parent="1" vertex="1">
                    <mxGeometry x="530" y="10" width="210" height="110" as="geometry"/>
                </mxCell>
                <mxCell id="42" value="" style="group;fillColor=#dae8fc;strokeColor=#6c8ebf;container=0;" parent="1" vertex="1" connectable="0">
                    <mxGeometry x="130" y="640" width="177" height="430" as="geometry"/>
                </mxCell>
                <mxCell id="44" value="" style="group;fillColor=#d5e8d4;strokeColor=#82b366;container=0;" parent="1" vertex="1" connectable="0">
                    <mxGeometry x="343" y="640" width="177" height="430" as="geometry"/>
                </mxCell>
                <mxCell id="53" value="" style="group;fillColor=#f5f5f5;fontColor=#333333;strokeColor=#666666;container=0;" parent="1" vertex="1" connectable="0">
                    <mxGeometry x="560" y="640" width="180" height="430" as="geometry"/>
                </mxCell>
                <mxCell id="63" value="药材" style="rounded=0;whiteSpace=wrap;html=1;dashed=1;fontFamily=Courier New;fontSize=18;strokeColor=#006EAF;fillColor=#008A00;fontColor=#ffffff;" parent="1" vertex="1">
                    <mxGeometry x="241.50000000000003" y="210" width="100" height="40" as="geometry"/>
                </mxCell>
                <mxCell id="64" value="药方" style="rounded=0;whiteSpace=wrap;html=1;dashed=1;fontFamily=Courier New;fontSize=18;strokeColor=#006EAF;fillColor=#008A00;fontColor=#ffffff;" parent="1" vertex="1">
                    <mxGeometry x="241.5" y="142" width="102.75" height="40" as="geometry"/>
                </mxCell>
                <mxCell id="65" value="" style="rounded=0;whiteSpace=wrap;html=1;dashed=1;fontFamily=Courier New;fontSize=18;fillColor=#f5f5f5;strokeColor=#666666;fontColor=#333333;" parent="1" vertex="1">
                    <mxGeometry x="130" y="1080" width="610" height="80" as="geometry"/>
                </mxCell>
                <mxCell id="69" value="" style="rounded=0;whiteSpace=wrap;html=1;fontFamily=Courier New;fontSize=14;fontColor=#999999;fillColor=#008A00;strokeColor=none;" parent="1" vertex="1">
                    <mxGeometry x="513" y="420" width="110" height="50" as="geometry"/>
                </mxCell>
                <mxCell id="70" value="" style="rounded=0;whiteSpace=wrap;html=1;fontFamily=Courier New;fontSize=14;fillColor=#DAE8FC;strokeColor=#82b366;dashed=1;" parent="1" vertex="1">
                    <mxGeometry x="660" y="130" width="80" height="350" as="geometry"/>
                </mxCell>
                <mxCell id="72" value="&lt;b&gt;辩体&lt;/b&gt;" style="rounded=0;whiteSpace=wrap;html=1;fontFamily=Courier New;fontSize=14;fontColor=#ffffff;fillColor=#008a00;strokeColor=#005700;" parent="1" vertex="1">
                    <mxGeometry x="248" y="370" width="245" height="40" as="geometry"/>
                </mxCell>
                <mxCell id="74" value="&lt;b&gt;辨症&lt;/b&gt;" style="rounded=0;whiteSpace=wrap;html=1;fontFamily=Courier New;fontSize=14;fontColor=#ffffff;fillColor=#008a00;strokeColor=#005700;dashed=1;" parent="1" vertex="1">
                    <mxGeometry x="248" y="310" width="375" height="50" as="geometry"/>
                </mxCell>
                <mxCell id="77" value="" style="rounded=0;whiteSpace=wrap;html=1;fontFamily=Courier New;fontSize=14;fillColor=#DAE8FC;strokeColor=#82b366;dashed=1;" parent="1" vertex="1">
                    <mxGeometry x="130" y="130" width="80" height="350" as="geometry"/>
                </mxCell>
                <mxCell id="87" value="&lt;font color=&quot;#ffffff&quot;&gt;省市区街道数据&lt;/font&gt;" style="rounded=1;whiteSpace=wrap;html=1;fontFamily=Courier New;fontSize=14;fontColor=#999999;fillColor=#FF9933;strokeColor=none;" parent="1" vertex="1">
                    <mxGeometry x="140" y="1100" width="101.5" height="40" as="geometry"/>
                </mxCell>
                <mxCell id="88" value="&lt;font color=&quot;#ffffff&quot;&gt;SMS消息&lt;/font&gt;" style="rounded=1;whiteSpace=wrap;html=1;fontFamily=Courier New;fontSize=14;fontColor=#999999;fillColor=#FF9933;strokeColor=none;" parent="1" vertex="1">
                    <mxGeometry x="248.5" y="1100" width="101.5" height="40" as="geometry"/>
                </mxCell>
                <mxCell id="89" value="&lt;font color=&quot;#ffffff&quot;&gt;推送服务&lt;/font&gt;" style="rounded=1;whiteSpace=wrap;html=1;fontFamily=Courier New;fontSize=14;fontColor=#999999;fillColor=#FF9933;strokeColor=none;" parent="1" vertex="1">
                    <mxGeometry x="360" y="1100" width="80" height="40" as="geometry"/>
                </mxCell>
                <mxCell id="90" value="&lt;font color=&quot;#ffffff&quot;&gt;COS资源服务&lt;/font&gt;" style="rounded=1;whiteSpace=wrap;html=1;fontFamily=Courier New;fontSize=14;fontColor=#999999;fillColor=#FF9933;strokeColor=none;" parent="1" vertex="1">
                    <mxGeometry x="450" y="1100" width="90" height="40" as="geometry"/>
                </mxCell>
                <mxCell id="91" value="&lt;font color=&quot;#ffffff&quot; style=&quot;background-color: rgb(255 , 153 , 51)&quot;&gt;APP服务&lt;/font&gt;" style="rounded=1;whiteSpace=wrap;html=1;fontFamily=Courier New;fontSize=14;fontColor=#999999;fillColor=#FF9933;strokeColor=none;" parent="1" vertex="1">
                    <mxGeometry x="550" y="1100" width="80" height="40" as="geometry"/>
                </mxCell>
                <mxCell id="92" value="&lt;font color=&quot;#ffffff&quot; style=&quot;background-color: rgb(255 , 153 , 51)&quot;&gt;设备模块&lt;/font&gt;" style="rounded=1;whiteSpace=wrap;html=1;fontFamily=Courier New;fontSize=14;fontColor=#999999;fillColor=#FF9933;strokeColor=none;" vertex="1" parent="1">
                    <mxGeometry x="640" y="1100" width="80" height="40" as="geometry"/>
                </mxCell>
                <mxCell id="93" value="&lt;b&gt;体质管理&lt;/b&gt;" style="rounded=0;whiteSpace=wrap;html=1;fontFamily=Courier New;fontSize=14;fontColor=#ffffff;fillColor=#008a00;strokeColor=#005700;" vertex="1" parent="1">
                    <mxGeometry x="383" y="420" width="110" height="50" as="geometry"/>
                </mxCell>
                <mxCell id="94" value="&lt;b&gt;问题库&lt;/b&gt;" style="rounded=0;whiteSpace=wrap;html=1;fontFamily=Courier New;fontSize=14;fontColor=#ffffff;fillColor=#008a00;strokeColor=#005700;" vertex="1" parent="1">
                    <mxGeometry x="247.25" y="420" width="110" height="50" as="geometry"/>
                </mxCell>
                <mxCell id="96" value="&lt;font style=&quot;font-size: 14px&quot;&gt;&lt;b&gt;辩体辩证&lt;/b&gt;&lt;/font&gt;" style="text;html=1;strokeColor=none;fillColor=none;align=center;verticalAlign=middle;whiteSpace=wrap;rounded=0;fontFamily=Courier New;fontSize=12;fontColor=#999999;" vertex="1" parent="1">
                    <mxGeometry x="385.3741121495327" y="279.2861904761905" width="99.25233644859813" height="30.71428571428571" as="geometry"/>
                </mxCell>
                <mxCell id="97" value="&lt;font style=&quot;font-size: 14px&quot; color=&quot;#ffffff&quot;&gt;&lt;b&gt;特征模块&lt;/b&gt;&lt;/font&gt;" style="text;html=1;strokeColor=none;fillColor=none;align=center;verticalAlign=middle;whiteSpace=wrap;rounded=0;fontFamily=Courier New;fontSize=12;fontColor=#999999;" vertex="1" parent="1">
                    <mxGeometry x="518.3741121495327" y="429.64619047619044" width="99.25233644859813" height="30.71428571428571" as="geometry"/>
                </mxCell>
                <mxCell id="100" value="&lt;span style=&quot;font-size: 14px&quot;&gt;&lt;b&gt;疾病模块&lt;/b&gt;&lt;/span&gt;" style="text;html=1;align=center;verticalAlign=middle;whiteSpace=wrap;rounded=0;fontFamily=Courier New;fontSize=12;" vertex="1" parent="1">
                    <mxGeometry x="649.5348598130842" y="269.99619047619046" width="100.93457943925233" height="30.71428571428571" as="geometry"/>
                </mxCell>
                <mxCell id="101" value="&lt;span style=&quot;font-size: 14px&quot;&gt;&lt;b&gt;症候模块&lt;/b&gt;&lt;/span&gt;" style="text;html=1;align=center;verticalAlign=middle;whiteSpace=wrap;rounded=0;fontFamily=Courier New;fontSize=12;" vertex="1" parent="1">
                    <mxGeometry x="119.06485981308413" y="279.99619047619046" width="100.93457943925233" height="30.71428571428571" as="geometry"/>
                </mxCell>
                <mxCell id="45" value="" style="rounded=0;whiteSpace=wrap;html=1;dashed=1;fontFamily=Courier New;fontSize=18;fillColor=#f5f5f5;strokeColor=#666666;fontColor=#333333;" parent="1" vertex="1">
                    <mxGeometry x="343" y="640" width="177" height="429.99999999999994" as="geometry"/>
                </mxCell>
                <mxCell id="46" value="&lt;font style=&quot;font-size: 12px&quot; color=&quot;#ffffff&quot;&gt;基础信息&lt;/font&gt;" style="rounded=0;whiteSpace=wrap;html=1;fontFamily=Courier New;fontSize=18;fontColor=#999999;strokeColor=none;fillColor=#808080;" parent="1" vertex="1">
                    <mxGeometry x="365.3317757009346" y="701.4285714285714" width="132.33644859813086" height="40.95238095238095" as="geometry"/>
                </mxCell>
                <mxCell id="47" value="&lt;font style=&quot;font-size: 12px&quot; color=&quot;#ffffff&quot;&gt;四诊&lt;/font&gt;" style="rounded=0;whiteSpace=wrap;html=1;fontFamily=Courier New;fontSize=18;fontColor=#999999;strokeColor=none;fillColor=#808080;" parent="1" vertex="1">
                    <mxGeometry x="365.3317757009346" y="762.8571428571429" width="132.33644859813086" height="40.95238095238095" as="geometry"/>
                </mxCell>
                <mxCell id="48" value="&lt;font color=&quot;#ffffff&quot;&gt;&lt;span style=&quot;font-size: 12px&quot;&gt;病例&lt;/span&gt;&lt;/font&gt;" style="rounded=0;whiteSpace=wrap;html=1;fontFamily=Courier New;fontSize=18;fontColor=#999999;strokeColor=none;fillColor=#808080;" parent="1" vertex="1">
                    <mxGeometry x="365.3317757009346" y="824.2857142857142" width="132.33644859813086" height="40.95238095238095" as="geometry"/>
                </mxCell>
                <mxCell id="49" value="&lt;font style=&quot;font-size: 12px&quot; color=&quot;#ffffff&quot;&gt;绑定诊所，医生，用户&lt;/font&gt;" style="rounded=0;whiteSpace=wrap;html=1;fontFamily=Courier New;fontSize=18;fontColor=#999999;strokeColor=none;fillColor=#808080;" parent="1" vertex="1">
                    <mxGeometry x="365.3317757009346" y="944.7142857142857" width="132.33644859813086" height="40.95238095238095" as="geometry"/>
                </mxCell>
                <mxCell id="51" value="&lt;span style=&quot;font-size: 12px&quot;&gt;&lt;font color=&quot;#ffffff&quot;&gt;查询关联业务&lt;/font&gt;&lt;/span&gt;" style="rounded=0;whiteSpace=wrap;html=1;fontFamily=Courier New;fontSize=18;fontColor=#999999;strokeColor=none;fillColor=#808080;" parent="1" vertex="1">
                    <mxGeometry x="365.3317757009346" y="1011.2595238095239" width="132.33644859813086" height="40.95238095238095" as="geometry"/>
                </mxCell>
                <mxCell id="52" value="&lt;font style=&quot;font-size: 14px&quot;&gt;&lt;b&gt;患者&lt;/b&gt;&lt;/font&gt;" style="text;html=1;strokeColor=none;fillColor=none;align=center;verticalAlign=middle;whiteSpace=wrap;rounded=0;fontFamily=Courier New;fontSize=12;fontColor=#999999;" parent="1" vertex="1">
                    <mxGeometry x="376.0841121495327" y="660.4761904761905" width="99.25233644859813" height="30.71428571428571" as="geometry"/>
                </mxCell>
                <mxCell id="20" value="" style="rounded=0;whiteSpace=wrap;html=1;dashed=1;fontFamily=Courier New;fontSize=18;fillColor=#f5f5f5;strokeColor=#666666;fontColor=#333333;" parent="1" vertex="1">
                    <mxGeometry x="130" y="640" width="177" height="429.99999999999994" as="geometry"/>
                </mxCell>
                <mxCell id="32" value="&lt;font style=&quot;font-size: 12px&quot; color=&quot;#ffffff&quot;&gt;基础信息&lt;/font&gt;" style="rounded=0;whiteSpace=wrap;html=1;fontFamily=Courier New;fontSize=18;fontColor=#999999;strokeColor=none;fillColor=#808080;" parent="1" vertex="1">
                    <mxGeometry x="152.33177570093457" y="701.4285714285714" width="132.33644859813086" height="40.95238095238095" as="geometry"/>
                </mxCell>
                <mxCell id="33" value="&lt;font style=&quot;font-size: 12px&quot; color=&quot;#ffffff&quot;&gt;医生管理&lt;/font&gt;" style="rounded=0;whiteSpace=wrap;html=1;fontFamily=Courier New;fontSize=18;fontColor=#999999;strokeColor=none;fillColor=#808080;" parent="1" vertex="1">
                    <mxGeometry x="154.33177570093457" y="1018.8071428571429" width="132.33644859813086" height="40.95238095238095" as="geometry"/>
                </mxCell>
                <mxCell id="34" value="&lt;font style=&quot;font-size: 12px&quot; color=&quot;#ffffff&quot;&gt;角色&lt;/font&gt;" style="rounded=0;whiteSpace=wrap;html=1;fontFamily=Courier New;fontSize=18;fontColor=#999999;strokeColor=none;fillColor=#808080;" parent="1" vertex="1">
                    <mxGeometry x="152.33177570093457" y="764.2857142857142" width="132.33644859813086" height="40.95238095238095" as="geometry"/>
                </mxCell>
                <mxCell id="35" value="&lt;font style=&quot;font-size: 12px&quot; color=&quot;#ffffff&quot;&gt;权限&lt;/font&gt;" style="rounded=0;whiteSpace=wrap;html=1;fontFamily=Courier New;fontSize=18;fontColor=#999999;strokeColor=none;fillColor=#808080;" parent="1" vertex="1">
                    <mxGeometry x="152.33177570093457" y="825.7142857142857" width="132.33644859813086" height="40.95238095238095" as="geometry"/>
                </mxCell>
                <mxCell id="36" value="&lt;font style=&quot;font-size: 12px&quot; color=&quot;#ffffff&quot;&gt;收货地址&lt;/font&gt;" style="rounded=0;whiteSpace=wrap;html=1;fontFamily=Courier New;fontSize=18;fontColor=#999999;strokeColor=none;fillColor=#808080;" parent="1" vertex="1">
                    <mxGeometry x="152.33177570093457" y="892.2619047619048" width="132.33644859813086" height="40.95238095238095" as="geometry"/>
                </mxCell>
                <mxCell id="37" value="&lt;font color=&quot;#ffffff&quot; style=&quot;font-size: 12px&quot;&gt;查询关联业务&lt;/font&gt;" style="rounded=0;whiteSpace=wrap;html=1;fontFamily=Courier New;fontSize=18;fontColor=#999999;strokeColor=none;fillColor=#808080;" parent="1" vertex="1">
                    <mxGeometry x="153.83177570093457" y="958.8095238095239" width="132.33644859813086" height="40.95238095238095" as="geometry"/>
                </mxCell>
                <mxCell id="40" value="&lt;font style=&quot;font-size: 14px&quot;&gt;&lt;b&gt;用户&lt;/b&gt;&lt;/font&gt;" style="text;html=1;strokeColor=none;fillColor=none;align=center;verticalAlign=middle;whiteSpace=wrap;rounded=0;fontFamily=Courier New;fontSize=12;fontColor=#999999;" parent="1" vertex="1">
                    <mxGeometry x="163.0841121495327" y="660.4761904761905" width="99.25233644859813" height="30.71428571428571" as="geometry"/>
                </mxCell>
                <mxCell id="54" value="" style="rounded=0;whiteSpace=wrap;html=1;dashed=1;fontFamily=Courier New;fontSize=18;fillColor=#f5f5f5;strokeColor=#666666;fontColor=#333333;" parent="1" vertex="1">
                    <mxGeometry x="560" y="640" width="180" height="429.99999999999994" as="geometry"/>
                </mxCell>
                <mxCell id="55" value="&lt;font style=&quot;font-size: 12px&quot; color=&quot;#ffffff&quot;&gt;基础信息&lt;/font&gt;" style="rounded=0;whiteSpace=wrap;html=1;fontFamily=Courier New;fontSize=18;fontColor=#999999;strokeColor=none;fillColor=#808080;" parent="1" vertex="1">
                    <mxGeometry x="582.7102803738318" y="701.4285714285714" width="134.57943925233644" height="40.95238095238095" as="geometry"/>
                </mxCell>
                <mxCell id="56" value="&lt;font color=&quot;#ffffff&quot;&gt;&lt;span style=&quot;font-size: 12px&quot;&gt;开病例&lt;/span&gt;&lt;/font&gt;" style="rounded=0;whiteSpace=wrap;html=1;fontFamily=Courier New;fontSize=18;fontColor=#999999;strokeColor=none;fillColor=#808080;" parent="1" vertex="1">
                    <mxGeometry x="582.7102803738317" y="851.3071428571429" width="134.57943925233644" height="40.95238095238095" as="geometry"/>
                </mxCell>
                <mxCell id="57" value="&lt;font color=&quot;#ffffff&quot;&gt;&lt;span style=&quot;font-size: 12px&quot;&gt;辩体&lt;/span&gt;&lt;/font&gt;" style="rounded=0;whiteSpace=wrap;html=1;fontFamily=Courier New;fontSize=18;fontColor=#999999;strokeColor=none;fillColor=#808080;" parent="1" vertex="1">
                    <mxGeometry x="582.7102803738318" y="749.9957142857143" width="134.57943925233644" height="40.95238095238095" as="geometry"/>
                </mxCell>
                <mxCell id="58" value="&lt;font style=&quot;font-size: 12px&quot; color=&quot;#ffffff&quot;&gt;辩证&lt;/font&gt;" style="rounded=0;whiteSpace=wrap;html=1;fontFamily=Courier New;fontSize=18;fontColor=#999999;strokeColor=none;fillColor=#808080;" parent="1" vertex="1">
                    <mxGeometry x="582.7102803738318" y="799.0442857142857" width="134.57943925233644" height="40.95238095238095" as="geometry"/>
                </mxCell>
                <mxCell id="60" value="&lt;font color=&quot;#ffffff&quot;&gt;&lt;span style=&quot;font-size: 12px&quot;&gt;药方管理&lt;/span&gt;&lt;/font&gt;" style="rounded=0;whiteSpace=wrap;html=1;fontFamily=Courier New;fontSize=18;fontColor=#999999;strokeColor=none;fillColor=#808080;" parent="1" vertex="1">
                    <mxGeometry x="582.7102803738318" y="958.8095238095239" width="134.57943925233644" height="40.95238095238095" as="geometry"/>
                </mxCell>
                <mxCell id="61" value="&lt;span style=&quot;font-size: 14px&quot;&gt;&lt;b&gt;医生&lt;/b&gt;&lt;/span&gt;" style="text;html=1;strokeColor=none;fillColor=none;align=center;verticalAlign=middle;whiteSpace=wrap;rounded=0;fontFamily=Courier New;fontSize=12;fontColor=#999999;" parent="1" vertex="1">
                    <mxGeometry x="593.6448598130842" y="660.4761904761905" width="100.93457943925233" height="30.71428571428571" as="geometry"/>
                </mxCell>
                <mxCell id="103" value="&lt;font style=&quot;font-size: 14px&quot;&gt;&lt;b&gt;开方模块&lt;/b&gt;&lt;/font&gt;" style="text;html=1;strokeColor=none;fillColor=none;align=center;verticalAlign=middle;whiteSpace=wrap;rounded=0;fontFamily=Courier New;fontSize=12;fontColor=#999999;" vertex="1" parent="1">
                    <mxGeometry x="388.3741121495327" y="141.99619047619046" width="99.25233644859813" height="30.71428571428571" as="geometry"/>
                </mxCell>
                <mxCell id="105" value="病例" style="rounded=0;whiteSpace=wrap;html=1;dashed=1;fontFamily=Courier New;fontSize=18;strokeColor=#006EAF;fillColor=#008A00;fontColor=#ffffff;" vertex="1" parent="1">
                    <mxGeometry x="547.25" y="210" width="102.75" height="40" as="geometry"/>
                </mxCell>
                <mxCell id="106" value="处方" style="rounded=0;whiteSpace=wrap;html=1;dashed=1;fontFamily=Courier New;fontSize=18;strokeColor=#006EAF;fillColor=#008A00;fontColor=#ffffff;" vertex="1" parent="1">
                    <mxGeometry x="547.25" y="142" width="102.75" height="40" as="geometry"/>
                </mxCell>
                <mxCell id="111" value="&lt;b&gt;&lt;font color=&quot;#ffffff&quot;&gt;推荐&lt;/font&gt;&lt;/b&gt;" style="rounded=0;whiteSpace=wrap;html=1;fontFamily=Courier New;fontSize=14;fontColor=#999999;fillColor=#008A00;strokeColor=none;" vertex="1" parent="1">
                    <mxGeometry x="514" y="370" width="110" height="40" as="geometry"/>
                </mxCell>
                <mxCell id="112" value="" style="rounded=0;whiteSpace=wrap;html=1;dashed=1;labelBackgroundColor=#FF9933;fontFamily=Courier New;fontSize=12;fontColor=#FFFFFF;strokeColor=none;fillColor=#FF9933;" vertex="1" parent="1">
                    <mxGeometry x="10" y="1080" width="114" height="80" as="geometry"/>
                </mxCell>
                <mxCell id="113" value="&lt;font style=&quot;font-size: 18px&quot;&gt;基础支撑&lt;/font&gt;" style="text;html=1;strokeColor=none;fillColor=#FF9933;align=center;verticalAlign=middle;whiteSpace=wrap;rounded=0;dashed=1;labelBackgroundColor=#FF9933;fontFamily=Courier New;fontSize=12;fontColor=#ffffff;" vertex="1" parent="1">
                    <mxGeometry x="20" y="1107.5" width="90" height="25" as="geometry"/>
                </mxCell>
                <mxCell id="114" value="" style="rounded=0;whiteSpace=wrap;html=1;dashed=1;labelBackgroundColor=#FF9933;fontFamily=Courier New;fontSize=12;fontColor=#FFFFFF;strokeColor=none;fillColor=#808080;" vertex="1" parent="1">
                    <mxGeometry x="10" y="640" width="115" height="430" as="geometry"/>
                </mxCell>
                <mxCell id="118" value="" style="rounded=0;whiteSpace=wrap;html=1;dashed=1;fontFamily=Courier New;fontSize=18;fillColor=#cce5ff;strokeColor=#36393d;" vertex="1" parent="1">
                    <mxGeometry x="130" y="490" width="610" height="140" as="geometry"/>
                </mxCell>
                <mxCell id="120" value="&lt;font color=&quot;#ffffff&quot;&gt;账户体系&lt;/font&gt;" style="text;html=1;strokeColor=none;fillColor=none;align=center;verticalAlign=middle;whiteSpace=wrap;rounded=0;dashed=1;labelBackgroundColor=#808080;fontFamily=Courier New;fontSize=18;fontColor=#808080;" vertex="1" parent="1">
                    <mxGeometry x="26.5" y="840" width="77" height="30" as="geometry"/>
                </mxCell>
                <mxCell id="121" value="&lt;span style=&quot;font-size: 14px&quot;&gt;&lt;b&gt;诊所模块&lt;/b&gt;&lt;/span&gt;" style="text;html=1;strokeColor=none;fillColor=none;align=center;verticalAlign=middle;whiteSpace=wrap;rounded=0;fontFamily=Courier New;fontSize=12;fontColor=#999999;" vertex="1" parent="1">
                    <mxGeometry x="384.53485981308415" y="499.99619047619046" width="100.93457943925233" height="30.71428571428571" as="geometry"/>
                </mxCell>
                <mxCell id="124" value="&lt;font style=&quot;font-size: 12px&quot; color=&quot;#ffffff&quot;&gt;开方&lt;/font&gt;" style="rounded=0;whiteSpace=wrap;html=1;fontFamily=Courier New;fontSize=18;fontColor=#999999;strokeColor=none;fillColor=#808080;" vertex="1" parent="1">
                    <mxGeometry x="582.7102803738318" y="903.7642857142856" width="134.57943925233644" height="40.95238095238095" as="geometry"/>
                </mxCell>
                <mxCell id="126" value="" style="rounded=0;whiteSpace=wrap;html=1;dashed=1;labelBackgroundColor=#FF9933;fontFamily=Courier New;fontSize=12;strokeColor=#36393d;fillColor=#60A917;" vertex="1" parent="1">
                    <mxGeometry x="9.5" y="490" width="115" height="140" as="geometry"/>
                </mxCell>
                <mxCell id="129" value="服务机构" style="text;strokeColor=none;fillColor=none;align=center;verticalAlign=middle;whiteSpace=wrap;rounded=0;dashed=1;labelBackgroundColor=#60A917;fontFamily=Courier New;fontSize=18;fontColor=#FFFFFF;" vertex="1" parent="1">
                    <mxGeometry x="23.75" y="542.5" width="82.5" height="35" as="geometry"/>
                </mxCell>
                <mxCell id="130" value="&lt;span style=&quot;&quot;&gt;&lt;font style=&quot;font-size: 12px&quot;&gt;绑定设备&lt;/font&gt;&lt;/span&gt;" style="rounded=0;whiteSpace=wrap;html=1;dashed=1;labelBackgroundColor=none;fontFamily=Courier New;fontSize=18;fontColor=#ffffff;strokeColor=#2D7600;fillColor=#60a917;" vertex="1" parent="1">
                    <mxGeometry x="515" y="550" width="103" height="57.47" as="geometry"/>
                </mxCell>
                <mxCell id="131" value="&lt;span style=&quot;&quot;&gt;&lt;font style=&quot;font-size: 12px&quot;&gt;绑定患者&lt;/font&gt;&lt;/span&gt;" style="rounded=0;whiteSpace=wrap;html=1;dashed=1;labelBackgroundColor=none;fontFamily=Courier New;fontSize=18;fontColor=#ffffff;strokeColor=#2D7600;fillColor=#60a917;" vertex="1" parent="1">
                    <mxGeometry x="385" y="549" width="103" height="57.47" as="geometry"/>
                </mxCell>
                <mxCell id="132" value="&lt;span&gt;&lt;font style=&quot;font-size: 12px&quot;&gt;绑定医生&lt;/font&gt;&lt;/span&gt;" style="rounded=0;whiteSpace=wrap;html=1;dashed=1;labelBackgroundColor=none;fontFamily=Courier New;fontSize=18;fontColor=#ffffff;strokeColor=#2D7600;fillColor=#60a917;" vertex="1" parent="1">
                    <mxGeometry x="257.33" y="548.74" width="103" height="57.47" as="geometry"/>
                </mxCell>
                <mxCell id="133" value="&lt;span&gt;&lt;font style=&quot;font-size: 12px&quot;&gt;基础信息&lt;/font&gt;&lt;/span&gt;" style="rounded=0;html=1;dashed=1;labelBackgroundColor=none;fontFamily=Courier New;fontSize=18;fontColor=#ffffff;strokeColor=#2D7600;fillColor=#60a917;whiteSpace=wrap;" vertex="1" parent="1">
                    <mxGeometry x="134.99999999999997" y="550" width="103" height="57.47" as="geometry"/>
                </mxCell>
                <mxCell id="134" value="" style="rounded=0;whiteSpace=wrap;html=1;dashed=1;labelBackgroundColor=#FF9933;fontFamily=Courier New;fontSize=12;strokeColor=#36393d;fillColor=#008A00;" vertex="1" parent="1">
                    <mxGeometry x="10" y="130" width="115" height="350" as="geometry"/>
                </mxCell>
                <mxCell id="135" value="" style="rounded=0;whiteSpace=wrap;html=1;dashed=1;labelBackgroundColor=#FF9933;fontFamily=Courier New;fontSize=12;strokeColor=#36393d;fillColor=#F8CECC;" vertex="1" parent="1">
                    <mxGeometry x="10" y="10" width="115" height="110" as="geometry"/>
                </mxCell>
                <mxCell id="136" value="&lt;font style=&quot;font-size: 18px&quot;&gt;业务功能&lt;/font&gt;" style="text;html=1;strokeColor=none;fillColor=none;align=center;verticalAlign=middle;whiteSpace=wrap;rounded=0;dashed=1;labelBackgroundColor=none;fontFamily=Courier New;fontSize=12;fontColor=#FFFFFF;" vertex="1" parent="1">
                    <mxGeometry x="28.5" y="262" width="75" height="32" as="geometry"/>
                </mxCell>
                <mxCell id="137" value="&lt;span style=&quot;font-size: 18px&quot;&gt;目的导向&lt;/span&gt;" style="text;html=1;strokeColor=none;fillColor=none;align=center;verticalAlign=middle;whiteSpace=wrap;rounded=0;dashed=1;labelBackgroundColor=none;fontFamily=Courier New;fontSize=12;fontColor=#FFFFFF;" vertex="1" parent="1">
                    <mxGeometry x="30" y="49" width="75" height="32" as="geometry"/>
                </mxCell>
                <mxCell id="138" value="&lt;span&gt;&lt;font style=&quot;font-size: 12px&quot;&gt;钱包&lt;/font&gt;&lt;/span&gt;" style="rounded=0;whiteSpace=wrap;html=1;dashed=1;labelBackgroundColor=none;fontFamily=Courier New;fontSize=18;fontColor=#ffffff;strokeColor=#2D7600;fillColor=#60a917;" vertex="1" parent="1">
                    <mxGeometry x="632" y="549" width="103" height="57.47" as="geometry"/>
                </mxCell>
                <mxCell id="139" value="&lt;font style=&quot;font-size: 12px&quot; color=&quot;#ffffff&quot;&gt;处方&lt;/font&gt;" style="rounded=0;whiteSpace=wrap;html=1;fontFamily=Courier New;fontSize=18;fontColor=#999999;strokeColor=none;fillColor=#808080;" vertex="1" parent="1">
                    <mxGeometry x="365.3317757009346" y="885.7142857142857" width="132.33644859813086" height="40.95238095238095" as="geometry"/>
                </mxCell>
                <mxCell id="141" value="&lt;font color=&quot;#ffffff&quot;&gt;&lt;span style=&quot;font-size: 12px&quot;&gt;开单&lt;/span&gt;&lt;/font&gt;" style="rounded=0;whiteSpace=wrap;html=1;fontFamily=Courier New;fontSize=18;fontColor=#999999;strokeColor=none;fillColor=#808080;" vertex="1" parent="1">
                    <mxGeometry x="582.7102803738318" y="1018.8095238095239" width="134.57943925233644" height="40.95238095238095" as="geometry"/>
                </mxCell>
            </root>
        </mxGraphModel>
    </diagram>
</mxfile>